# xmcd CD database file
#
# Track frame offsets:
#	150
#	13276
#	38387
#	54028
#	76204
#	97739
#	119798
#	153983
#
# Disc length: 2192 seconds
#
# Revision: 0
# Processed by: cddbd v1.4PL0 Copyright (c) Steve Scherf et al.
# Submitted via: CDex 1.50beta8
#
DISCID=50088e08
DTITLE=Mo  and The Reapers - Live ! (Old Time Hokum Blues)
DYEAR=1900
DGENRE=Blues
TTITLE0=Bye Bye Bird
TTITLE1=Born With The Blues
TTITLE2=Kansas City
TTITLE3=Feel So Bad
TTITLE4=Last Night
TTITLE5=Honey Hush
TTITLE6=T Bone Shuffle
TTITLE7=Mo's Jam With L. Garner
EXTD=
EXTT0=
EXTT1=
EXTT2=
EXTT3=
EXTT4=
EXTT5=
EXTT6=
EXTT7=
PLAYORDER=
